HIERARCHY
ROOT Hips
{
     OFFSET 1.88212 96.90440 -13.34250
     CHANNELS 6 Xposition Yposition Zposition Zrotation Xrotation Yrotation
     JOINT Spine
     {
          OFFSET 0.00000 11.89050 0.00000
          CHANNELS 3 Zrotation Xrotation Yrotation
          JOINT Spine1
          {
               OFFSET -0.00000 25.65740 0.12766
               CHANNELS 3 Zrotation Xrotation Yrotation
               JOINT HEad
               {
                    OFFSET 0.00000 8.73416 0.01134
                    CHANNELS 3 Zrotation Xrotation Yrotation
                    End Site
                    {
                         OFFSET -0.29000 12.77420 2.51395
                    }
               }
               JOINT LeftShoulder1
               {
                    OFFSET 8.99000 -0.36225 -0.22000
                    CHANNELS 3 Zrotation Xrotation Yrotation
                    JOINT LeftArm
                    {
                         OFFSET 10.28270 -0.00338 0.32212
                         CHANNELS 3 Zrotation Xrotation Yrotation
                         JOINT LeftForeArm
                         {
                              OFFSET 32.76690 0.09914 -1.42434
                              CHANNELS 3 Zrotation Xrotation Yrotation
                              JOINT LeftHand
                              {
                                   OFFSET 27.56430 0.08536 1.02216
                                   CHANNELS 3 Zrotation Xrotation Yrotation
                                   End Site
                                   {
                                        OFFSET 16.74430 -0.60000 1.50291
                                   }
                              }
                         }
                    }
               }
               JOINT RightShoulder
               {
                    OFFSET -8.99000 -0.36225 -0.22000
                    CHANNELS 3 Zrotation Xrotation Yrotation
                    JOINT RightArm
                    {
                         OFFSET -10.28270 -0.00338 0.32212
                         CHANNELS 3 Zrotation Xrotation Yrotation
                         JOINT RightForeArm
                         {
                              OFFSET -32.89710 0.09914 -1.42434
                              CHANNELS 3 Zrotation Xrotation Yrotation
                              JOINT RightHand
                              {
                                   OFFSET -27.49210 0.08536 1.02216
                                   CHANNELS 3 Zrotation Xrotation Yrotation
                                   End Site
                                   {
                                        OFFSET -16.63120 -0.60000 1.50291
                                   }
                              }
                         }
                    }
               }
          }
     }
     JOINT LeftUpLeg
     {
          OFFSET 8.94580 -8.66707 0.10165
          CHANNELS 3 Zrotation Xrotation Yrotation
          JOINT LeftLeg
          {
               OFFSET 0.00000 -44.42270 1.37270
               CHANNELS 3 Zrotation Xrotation Yrotation
               JOINT LeftFoot
               {
                    OFFSET -0.25355 -42.09240 -1.46059
                    CHANNELS 3 Zrotation Xrotation Yrotation
                    JOINT LeftToes
                    {
                         OFFSET -0.04000 -4.41509 8.49910
                         CHANNELS 3 Zrotation Xrotation Yrotation
                         End Site
                         {
                              OFFSET 0.08000 -0.04745 9.77979
                         }
                    }
               }
          }
     }
     JOINT RightUpLeg
     {
          OFFSET -8.94580 -8.66707 0.10165
          CHANNELS 3 Zrotation Xrotation Yrotation
          JOINT RightLeg
          {
               OFFSET 0.00000 -44.42270 1.37270
               CHANNELS 3 Zrotation Xrotation Yrotation
               JOINT RightFoot
               {
                    OFFSET 0.25355 -42.09240 -1.46059
                    CHANNELS 3 Zrotation Xrotation Yrotation
                    JOINT RightToes
                    {
                         OFFSET 0.04000 -4.41509 8.49910
                         CHANNELS 3 Zrotation Xrotation Yrotation
                         End Site
                         {
                              OFFSET -0.08000 -0.13745 9.77979
                         }
                    }
               }
          }
     }
}
MOTION
Frames: 20
Frame Time: 0.01667
101.00583 86.69822 -103.62012 -6.22201 -1.59049 -46.19789 5.00760 13.37693 3.30897 -0.00937 0.02248 0.03419 -8.91192 19.85370 11.95718 -16.29853 9.43937 17.35658 -102.47253 -59.21960 -81.37707 -38.91143 58.11341 -105.97986 7.13131 8.52815 2.08686 1.81568 18.04899 25.58749 69.59365 -27.74659 71.43458 29.48370 48.54601 110.56274 -7.14805 13.06686 -0.45227 2.17690 -29.71765 26.71438 375.12009 41.84016 -377.45432 31.35719 0.56857 -0.74206 -38.26008 -6.04256 -3.00399 -19.24037 -11.54795 -2.67610 46.53897 66.46769 -20.10326 14.61460 -0.00833 -0.20939 0.13884 -17.03748 -0.66390 
103.27337 89.32106 -103.06859 -2.86236 -2.18072 -48.71096 1.70596 11.68896 4.38749 -0.00424 0.01396 0.02657 -10.17754 22.14430 12.02158 -16.27647 8.56426 17.49338 -101.19623 -59.31196 -80.03753 -37.73123 58.44385 -106.87937 7.02704 8.83968 1.19077 2.22461 17.33378 25.79395 68.34412 -27.72355 69.47633 29.39943 48.29661 111.31844 -6.98126 11.88583 -0.53947 -4.34923 -28.92724 21.31133 376.86993 34.27520 -379.42322 41.71668 0.38571 -0.77683 -38.32402 -3.16672 -9.96700 -17.07130 -7.76856 -5.82182 35.86785 64.11590 -11.65461 7.70480 -0.19706 -0.07304 -2.67244 -28.94894 -2.22652 
105.38029 91.21844 -102.83546 -0.04536 -2.66760 -50.98466 -1.12870 10.14644 5.43593 -0.00533 0.01681 0.02392 -11.12461 23.81461 12.10604 -15.95785 7.79784 17.38635 -97.13046 -55.98224 -78.44152 -34.42978 55.72490 -107.12650 7.34351 8.58954 1.18675 8.00787 12.19962 14.39861 63.81972 -15.93301 66.87987 29.23999 47.95970 111.57750 -6.78832 12.66499 0.50164 -9.97587 -28.07387 15.01299 378.95416 27.81262 -380.77515 51.56222 0.26084 -0.77184 -55.60180 4.91309 -11.56868 -14.41820 -3.16236 -8.94471 21.48417 56.73775 -2.11945 -0.18426 -0.35791 0.19040 0.35679 -38.27057 -8.67186 
107.20470 92.49689 -102.83482 2.50153 -3.12625 -53.23416 -3.72659 8.57512 6.48037 -0.00095 0.00957 0.00906 -11.97017 25.32604 12.22183 -13.96080 7.49645 14.20580 -95.48373 -56.28830 -77.22744 -31.86901 53.45981 -107.72234 7.54572 8.53235 1.12172 11.59100 8.03286 7.44034 60.90023 -8.16741 65.49641 29.24367 47.48756 111.47401 -6.66549 12.97095 1.35500 -15.14940 -27.05343 8.48101 381.01416 21.81584 -381.69736 61.45358 0.11636 -0.83139 -72.03104 9.82293 -8.70871 -11.80225 1.28550 -12.18173 11.92849 47.82418 3.75019 -7.12005 -0.28834 0.17510 6.56145 -42.68613 -15.13659 
109.11142 93.09664 -102.98019 4.73018 -3.53117 -55.47076 -6.03730 7.03131 7.49067 -0.00130 0.00661 0.00300 -12.71313 26.66936 12.37496 -10.47809 8.23528 8.97926 -96.99438 -59.03639 -77.54424 -30.12324 51.48700 -108.40996 7.63931 8.38297 1.06965 13.88548 5.11328 3.00195 59.04772 -3.15764 64.87686 29.34756 47.01359 111.24214 -6.65552 13.06411 1.95212 -19.58263 -25.90223 1.88197 383.46274 16.36950 -382.52200 70.90446 -0.03161 -0.81586 -89.10090 8.50767 -6.63300 -9.17976 5.51241 -15.47237 4.91286 37.64527 7.37967 -11.69754 -0.22441 0.13194 5.40106 -46.18300 -20.28515 
110.86981 93.31513 -103.18082 6.66023 -3.87771 -57.69555 -8.08029 5.52696 8.45830 -0.00259 0.00189 0.00036 -13.21701 27.45576 12.71559 -7.59527 8.71793 5.49549 -97.69708 -60.64114 -77.57203 -29.15933 49.69238 -108.91207 7.65111 8.13270 1.09820 15.40378 3.38785 0.12313 58.60084 -1.16314 64.31316 29.30016 46.48808 110.83568 -5.92272 11.91881 2.92330 -23.00529 -24.68575 -4.56582 386.32394 11.65940 -383.25726 79.59527 -0.13953 -0.72956 -104.19155 1.84894 -4.28932 -6.55556 9.54058 -18.78043 0.10017 26.73218 9.76484 -14.56828 -0.15055 0.09178 0.09384 -48.60102 -22.86458 
112.39716 92.77832 -103.40470 7.69333 -4.36997 -60.14218 -10.01318 4.73555 9.26375 -0.01702 0.01864 -0.02511 -13.68002 28.17386 13.07709 -5.21120 9.98023 0.47585 -100.33694 -63.39791 -80.10319 -28.45942 48.51299 -107.61860 8.31031 8.84764 0.64977 16.56868 2.49332 -1.77390 59.98922 -0.29197 63.66134 28.90882 46.39279 109.27151 -4.49292 12.83282 -1.06479 -24.92140 -22.86698 -10.27479 388.75723 7.73378 -382.73471 88.07972 -0.25125 -0.60005 -116.20283 -1.70886 0.34073 -4.08549 13.92901 -21.54663 -2.22516 15.04908 10.10992 -14.56720 -0.02107 -0.01103 -1.71181 -47.58808 -20.72219 
113.78232 92.15523 -103.56575 7.85350 -4.93965 -62.71026 -11.82151 4.62078 9.85656 -0.01598 0.02036 -0.02572 -14.11052 28.67423 13.82808 -3.20289 10.74243 -2.33495 -101.73626 -65.05597 -81.69296 -29.56373 47.92656 -104.05386 9.57828 10.35649 -0.87389 17.53499 2.28835 -2.85668 61.75683 0.22984 63.27250 27.81501 45.38229 107.16998 -1.86010 15.04234 -6.99120 -25.34105 -20.52203 -15.25175 390.78149 4.55329 -381.11169 96.25459 -0.30506 -0.45533 -123.77513 0.63993 8.61541 -1.80746 18.68965 -23.93253 -2.76161 3.02502 9.25304 -12.80395 0.08148 -0.09315 -1.54784 -44.11596 -15.41773 
115.07984 91.37292 -103.70102 7.17289 -5.50144 -65.31523 -13.46420 5.25166 10.31917 -0.01409 0.02058 -0.02535 -14.51346 28.88581 14.82465 -1.60550 11.07490 -3.53213 -102.11584 -65.98775 -82.44315 -30.82423 47.33521 -100.73399 10.87705 11.79149 -2.25093 18.34194 2.48880 -3.26587 63.77764 0.53978 63.03662 25.90170 43.59282 104.83100 2.22106 18.35580 -13.25900 -24.57175 -17.63627 -19.66718 393.80371 1.63623 -378.60944 90.44327 0.18205 0.19256 -119.94750 3.83811 15.66280 0.28760 23.78132 -26.06713 -1.85734 -8.91449 7.72340 -10.15472 0.14771 -0.15311 -1.08375 -38.79451 -8.71988 
116.27368 90.47375 -103.84425 6.11640 -5.93034 -67.52554 -15.39907 6.86287 9.72663 -0.03646 0.07436 -0.07100 -14.77562 27.92219 16.48984 -1.19092 9.79052 -0.89970 -100.58809 -65.38881 -81.55161 -31.66295 47.44072 -98.42999 12.10935 13.03979 -3.39441 18.86992 3.15298 -0.96915 66.20098 -0.13166 63.20961 21.90480 39.21553 101.43599 5.94129 11.20678 -0.05109 -22.23230 -15.01061 -23.67062 394.11151 0.57181 -372.92365 86.24436 0.05745 0.08684 -117.77081 5.47138 18.86502 0.94838 27.86761 -26.92318 1.83439 -19.28938 3.98787 -7.49309 0.20551 -0.20791 0.14139 -30.03872 0.68330 
117.39468 89.54042 -104.02853 4.75721 -6.21409 -69.37140 -16.96999 8.48549 9.13631 0.00242 -0.00304 0.00464 -14.99241 27.30772 17.82467 -0.69120 8.88991 1.28636 -101.06152 -65.49153 -82.02002 -32.30996 48.10696 -96.65057 12.71326 13.27584 -4.29903 19.20303 3.90287 0.65529 68.40842 0.08559 63.46970 16.12543 33.55571 97.99625 10.68773 25.40234 -11.67968 -18.78072 -12.83772 -27.17640 392.03741 0.34020 -365.25925 83.39070 0.02057 -0.01815 -113.93156 8.38133 19.25422 0.09109 31.32163 -26.31717 6.95983 -25.23599 0.92252 -12.61801 -0.23286 0.20605 4.68058 -25.30635 6.84932 
118.46426 88.70586 -104.23508 3.16868 -6.35822 -70.87321 -18.20775 10.11106 8.55655 0.00392 -0.00704 0.00786 -15.15144 26.78757 19.00782 -0.04565 8.20625 3.16156 -103.18143 -66.06973 -83.73748 -32.85418 49.16287 -95.14367 13.37842 13.49152 -5.13023 19.48959 4.63859 1.85230 70.40297 1.00603 63.73663 8.89319 27.35424 95.08068 9.63597 15.75471 6.62637 -14.63051 -11.21610 -30.05569 387.95160 0.04999 -356.45538 81.75925 0.00466 -0.04531 -110.02449 11.49512 17.41109 -1.97577 34.05533 -24.30239 11.54502 -28.26510 -1.31388 -13.66850 -0.03357 0.06636 4.88135 -22.13535 11.17181 
119.49181 88.04958 -104.41507 1.43728 -6.40610 -72.04842 -19.18390 11.74496 7.99344 0.00452 -0.00435 0.00954 -15.25987 26.40406 19.98555 0.63723 7.76000 4.70464 -106.47831 -66.84551 -86.45823 -33.29787 50.45013 -93.80730 13.69204 13.21899 -5.72988 19.80088 5.37442 3.00703 72.16449 2.07760 64.06389 3.97138 24.38656 93.67562 15.92441 16.32198 5.48863 -10.33148 -10.21123 -32.20084 382.76566 -0.93494 -347.25201 80.51807 0.00369 -0.06054 -104.82997 15.16274 13.64246 -4.93638 35.91808 -21.05378 15.89319 -29.16925 -3.24730 -16.51728 -0.05827 0.05385 5.85018 -20.67084 13.61345 
120.49347 87.65550 -104.50537 -0.35364 -6.39469 -72.91854 -19.94843 13.38061 7.44557 0.00627 -0.00127 0.01092 -15.32005 26.11966 20.75931 1.26902 7.49705 5.93795 -110.57778 -67.63914 -89.94647 -33.60955 51.85890 -92.62746 14.07861 13.01271 -6.23627 20.13622 6.08570 4.09269 73.61919 2.98764 64.49499 0.83485 23.05449 93.28328 14.94585 11.43390 13.09312 -6.15965 -9.66368 -33.48123 376.67584 -2.42485 -338.17322 79.71373 -0.00319 -0.05026 -98.49646 18.29574 7.95001 -8.49475 36.80466 -16.81853 20.06652 -28.52965 -5.31096 -18.76254 -0.02600 0.02492 5.69968 -20.09937 14.93864 
121.48172 87.50696 -104.46215 -2.13028 -6.34442 -73.51659 -20.52846 15.00367 6.91412 0.00816 0.00187 0.01225 -15.32911 25.89081 21.32648 1.78967 7.35603 6.88877 -115.14539 -68.32454 -93.93312 -33.73595 53.32277 -91.62794 14.28849 12.57963 -6.55732 20.56923 6.75916 5.10539 74.69602 3.58777 64.97669 -1.05702 22.65281 93.27002 17.61832 12.87054 10.75778 -2.20293 -9.40916 -33.79803 369.91483 -4.26053 -329.60168 79.15669 -0.00749 -0.03948 -90.83221 20.13838 0.43656 -12.36614 36.67953 -11.88450 24.05019 -26.76934 -7.81427 -21.58434 -0.01476 0.00196 5.77734 -20.48443 15.41427 
122.45901 87.53104 -104.26328 -3.83217 -6.26367 -73.88681 -20.93483 16.59313 6.40193 0.00982 0.00431 0.01270 -15.28793 25.68134 21.69086 2.17676 7.28544 7.57495 -119.88490 -68.83521 -98.13644 -33.62078 54.79195 -90.84231 14.56874 12.22087 -6.81985 21.03860 7.37620 5.96120 75.45246 3.86755 65.47151 -2.05961 22.67714 93.52600 16.62320 10.52717 14.17776 1.55095 -9.33170 -33.09055 362.62790 -6.16861 -321.79794 78.59363 -0.00821 -0.04212 -82.30297 20.04088 -8.38618 -16.28921 35.57237 -6.54006 27.88531 -24.22777 -10.92850 -24.15782 -0.00124 -0.01478 5.53446 -21.45477 15.24755 
123.41683 87.63536 -103.90793 -5.41459 -6.15338 -74.08121 -21.17193 18.12721 5.91656 0.01054 0.00710 0.01278 -15.19728 25.46058 21.85920 2.43476 7.24414 8.01214 -124.49566 -69.14103 -102.25474 -33.20766 56.21556 -90.30129 14.76480 11.75300 -6.99276 21.51086 7.91885 6.67540 75.96429 3.84504 65.92974 -2.50597 22.95313 93.83026 17.77210 11.79024 12.09676 5.14130 -9.35191 -31.35322 354.93506 -7.77514 -314.87610 77.76642 -0.00892 -0.06584 -73.53456 17.67765 -17.77971 -20.03629 33.55288 -1.05185 31.64455 -21.16229 -14.69190 -26.59974 0.00654 -0.02864 5.27830 -22.96029 14.56831 
124.33937 87.73209 -103.40842 -6.85000 -6.00831 -74.15472 -21.23759 19.58297 5.46961 0.01083 0.00843 0.01249 -15.06472 25.21107 21.84638 2.59637 7.21079 8.24771 -128.61896 -69.23335 -105.92710 -32.47453 57.50680 -90.02681 15.00099 11.34867 -7.14611 21.92394 8.37248 7.24314 76.31789 3.56030 66.33738 -2.58221 23.30774 94.20723 16.94759 10.74152 13.84218 8.57416 -9.40287 -28.62627 347.03720 -8.65556 -308.80621 76.43237 -0.01233 -0.11380 -65.27950 13.14231 -27.00947 -23.42248 30.71505 4.35136 35.40469 -17.75215 -19.04729 -28.57776 0.00775 -0.03430 4.85472 -24.85568 13.47998 
125.20645 87.75119 -102.78410 -8.12629 -5.81984 -74.16122 -21.13037 20.93818 5.07663 0.01043 0.00934 0.01201 -14.89951 24.92144 21.67264 2.68236 7.17341 8.31571 -132.03723 -69.14872 -108.94334 -31.45161 58.60646 -90.00469 15.16974 10.90137 -7.24502 22.25208 8.73181 7.68538 76.57974 3.07469 66.69649 -2.44607 23.70954 94.56181 17.42780 11.62401 12.37811 11.77968 -9.41922 -24.95641 339.30563 -8.39576 -303.47177 74.37044 -0.01650 -0.18499 -58.03336 6.91572 -35.64623 -26.31716 27.17090 9.48844 39.22459 -14.11357 -23.87452 -30.03091 0.00302 -0.03425 4.33784 -27.07581 12.08071 
126.00450 87.65535 -102.05738 -9.23982 -5.58516 -74.14640 -20.85846 22.17173 4.75085 0.00965 0.00965 0.01118 -14.71508 24.58948 21.36513 2.70807 7.13221 8.25695 -134.67049 -68.93134 -111.22741 -30.21874 59.48366 -90.18873 15.33702 10.51625 -7.31984 22.45640 9.00046 7.99159 76.81317 2.46409 67.03458 -2.17504 24.09580 94.92899 16.84483 11.15843 13.38826 14.60079 -9.28522 -20.40762 332.19391 -6.51222 -298.80234 71.20486 -0.02051 -0.28907 -51.93779 -0.44318 -43.50461 -28.63129 23.03152 14.19637 43.04542 -10.25154 -29.03351 -30.00753 -0.01830 -0.00826 2.95779 -29.49182 10.44879 
